<svg xmlns="http://www.w3.org/2000/svg" viewBox="0 0 600 340"><rect width="600" height="340" fill="#fbecdc"/><circle cx="555" cy="35" r="110" fill="#f4d1ab"/><circle cx="40" cy="335" r="95" fill="#f7dec2"/><ellipse cx="300" cy="293" rx="215" ry="16" fill="#e3c3a4"/><g transform="translate(235 65)"><rect width="235" height="215" rx="28" fill="#24493e"/><rect x="16" y="16" width="203" height="35" rx="12" fill="#102c25"/><path d="M38 33h25m17 0h25" stroke="#efb668" stroke-width="5" stroke-linecap="round"/><rect x="16" y="64" width="203" height="135" rx="18" fill="#356252"/><rect x="110.5" y="85" width="14" height="95" rx="7" fill="#f1c28c"/><path d="M28 218h179" stroke="#173d31" stroke-width="10" stroke-linecap="round"/></g><g fill="#bc6b38"><circle cx="115" cy="155" r="24"/><circle cx="176" cy="155" r="24"/><circle cx="145" cy="221" r="18"/></g><g fill="#e7a263"><rect x="87" y="184" width="57" height="64" rx="22"/><rect x="147" y="184" width="57" height="64" rx="22"/><rect x="123" y="246" width="45" height="35" rx="16"/></g></svg>
